<?xml version="1.0" standalone="no"?>
<!DOCTYPE svg PUBLIC "-//W3C//DTD SVG 20010904//EN"
 "http://www.w3.org/TR/2001/REC-SVG-20010904/DTD/svg10.dtd">
<svg version="1.0" xmlns="http://www.w3.org/2000/svg"
 width="776.000000pt" height="776.000000pt" viewBox="0 0 776.000000 776.000000"
 preserveAspectRatio="xMidYMid meet">

<g transform="translate(0.000000,776.000000) scale(0.100000,-0.100000)"
fill="#000000" stroke="none">
<path d="M3061 7424 c-33 -20 -40 -29 -30 -36 11 -7 9 -8 -5 -4 -13 5 -46 -14
-113 -65 -52 -39 -92 -73 -89 -76 3 -3 21 6 41 21 19 15 35 24 35 21 0 -10
-27 -35 -38 -35 -5 0 -15 -7 -22 -15 -11 -13 -15 -13 -21 -3 -6 9 -19 3 -48
-26 -34 -33 -38 -42 -28 -55 10 -12 9 -14 -5 -8 -10 3 -20 2 -23 -3 -4 -6 -1
-10 5 -10 6 0 8 -5 5 -10 -4 -6 -11 -8 -16 -5 -5 3 -6 -2 -2 -11 5 -14 2 -16
-15 -12 -13 4 -27 -1 -38 -14 -17 -18 -17 -19 0 -12 18 7 18 6 1 -19 -16 -25
-34 -40 -20 -17 8 13 -1 13 -26 -1 -12 -6 -18 -17 -15 -25 3 -8 2 -13 -3 -10
-5 3 -15 -2 -22 -11 -12 -15 -12 -16 3 -10 12 4 15 2 11 -9 -3 -8 -12 -13 -19
-10 -8 3 -24 -12 -40 -40 -21 -36 -24 -47 -14 -59 10 -11 10 -15 1 -15 -8 0
-7 -5 3 -15 19 -20 26 -19 27 3 0 10 3 12 6 5 2 -7 17 -13 31 -12 23 0 24 2 8
8 -19 7 -19 8 2 13 12 4 25 2 28 -4 4 -5 13 -3 23 6 9 8 25 19 36 23 43 18 85
49 96 70 7 13 15 21 17 18 3 -3 21 7 41 22 53 39 117 103 103 103 -7 0 -12 4
-12 10 0 5 6 7 13 4 17 -6 41 21 32 36 -4 7 -1 10 7 8 16 -3 68 52 68 71 0 6
5 11 10 11 17 0 68 88 80 141 10 40 10 53 -1 66 -12 14 -12 16 0 8 10 -5 12
-4 7 3 -11 18 -26 15 -75 -14z m32 -19 c-3 -9 -8 -14 -10 -11 -3 3 -2 9 2 15
9 16 15 13 8 -4z m-8 -27 c5 4 5 2 1 -5 -9 -16 -33 -6 -33 14 0 14 1 14 12 -1
7 -8 16 -12 20 -8z m-98 -44 c-3 -3 -12 -4 -19 -1 -8 3 -5 6 6 6 11 1 17 -2
13 -5z m83 -79 c-13 -15 -30 -12 -30 6 0 6 4 8 9 4 5 -3 13 0 16 6 4 5 9 8 12
5 3 -3 0 -12 -7 -21z m-260 -51 c0 -12 -31 -35 -40 -29 -14 9 -12 -8 2 -25 7
-8 4 -8 -6 2 -20 17 -14 38 10 38 8 0 14 5 14 10 0 6 5 10 10 10 6 0 10 -3 10
-6z m-93 -146 c-3 -8 -6 -5 -6 6 -1 11 2 17 5 13 3 -3 4 -12 1 -19z m113 -27
c0 -5 -7 -12 -16 -15 -14 -5 -15 -4 -4 9 14 17 20 19 20 6z m40 -1 c0 -5 -4
-10 -10 -10 -5 0 -10 5 -10 10 0 6 5 10 10 10 6 0 10 -4 10 -10z m-305 -100
c3 -5 1 -10 -4 -10 -6 0 -11 5 -11 10 0 6 2 10 4 10 3 0 8 -4 11 -10z m-15
-26 c0 -3 -7 -12 -15 -20 -16 -17 -18 -14 -9 10 6 15 24 23 24 10z m75 -25 c3
-5 -1 -6 -9 -3 -9 3 -16 1 -16 -6 0 -6 -4 -8 -10 -5 -5 3 -10 9 -10 13 0 11
39 12 45 1z"/>
<path d="M3291 7024 c0 -11 3 -14 6 -6 3 7 2 16 -1 19 -3 4 -6 -2 -5 -13z"/>
<path d="M3301 6954 c0 -11 3 -14 6 -6 3 7 2 16 -1 19 -3 4 -6 -2 -5 -13z"/>
<path d="M2485 6797 c-7 -21 -25 -538 -32 -889 l-6 -338 -23 0 c-41 0 -101
-30 -113 -56 -8 -17 -11 -248 -11 -802 -1 -763 -1 -777 -20 -792 -36 -28 -49
-137 -35 -292 l8 -76 -47 -7 -46 -7 3 -1541 2 -1540 28 -21 c25 -19 43 -21
200 -22 95 -1 159 0 142 3 -16 2 -34 11 -38 19 -4 8 -19 14 -32 14 -13 0 -27
5 -30 10 -4 6 6 10 23 10 21 0 31 6 35 20 5 19 14 20 344 21 207 1 322 5 298
10 -22 4 -74 9 -115 10 -41 1 -65 4 -52 6 12 2 22 9 22 14 0 17 -42 26 -149
32 -62 4 -107 11 -112 18 -4 7 -12 8 -20 3 -8 -4 -59 -10 -114 -11 -113 -4
-175 -18 -176 -42 -1 -9 -5 -5 -9 9 -4 14 -8 68 -8 120 0 90 1 92 10 43 10
-57 24 -67 108 -79 56 -8 448 -7 512 2 33 4 58 16 88 41 22 19 39 38 36 41 -3
3 2 11 12 18 12 9 52 13 129 14 l111 0 7 -31 c4 -17 8 -69 8 -116 1 -98 -2
-103 -82 -103 l-53 0 4 -32 c7 -46 -16 -66 -82 -71 -30 -2 16 -3 103 -2 101 2
162 6 170 14 6 6 22 11 36 11 21 0 23 -2 11 -11 -11 -8 -5 -9 24 -5 42 6 98
37 78 44 -6 2 -12 17 -12 34 0 23 4 29 15 24 12 -4 15 3 14 37 0 23 -4 60 -8
82 -8 35 -9 36 -10 10 0 -16 -5 -25 -9 -20 -4 6 -6 42 -3 80 5 68 5 69 11 25
l7 -45 1 44 c1 25 8 52 16 60 13 14 15 212 18 1381 l3 1364 -43 9 -44 8 6 72
c9 100 9 152 1 226 -6 50 -12 65 -26 68 -18 5 -19 32 -19 797 -1 633 -3 794
-14 808 -38 51 -191 68 -613 68 -192 0 -343 4 -337 8 13 9 25 38 18 45 -9 8
-10 426 -2 582 4 83 10 248 13 368 5 215 5 218 -15 213 -11 -3 -28 -8 -39 -11
-10 -3 -30 -1 -45 5 -20 7 -28 7 -31 -3z m515 -1237 c0 -5 -25 -10 -55 -10
-30 0 -55 5 -55 10 0 6 25 10 55 10 30 0 55 -4 55 -10z m95 -47 c-4 -10 -9
-270 -11 -578 -4 -566 -5 -620 -17 -632 -6 -5 -12 46 -8 70 0 4 -4 7 -9 7 -8
0 -10 175 -9 563 2 309 5 568 7 575 2 6 15 12 29 12 20 0 24 -4 18 -17z m-21
-1368 c-1 -38 -3 -78 -3 -88 -1 -10 -5 -16 -10 -13 -5 3 -7 19 -5 36 2 16 -1
30 -6 30 -13 0 -13 82 1 117 10 26 12 26 19 8 4 -11 6 -51 4 -90z m16 -188
c19 -3 16 -5 -12 -6 -30 -1 -36 2 -31 15 3 9 8 11 12 6 3 -6 17 -12 31 -15z
m-230 -27 c0 -5 -18 -10 -39 -10 -22 0 -43 5 -46 10 -4 6 12 10 39 10 25 0 46
-4 46 -10z m255 0 c-4 -6 -55 -10 -123 -9 -76 1 -106 4 -87 9 46 12 217 12
210 0z m200 -40 c17 -11 24 -20 17 -20 -7 0 -10 -5 -7 -10 3 -6 -6 -15 -21
-21 -33 -12 -85 11 -110 49 -14 22 -14 22 38 22 36 0 63 -7 83 -20z m-58 -286
c-3 -3 -12 -4 -19 -1 -8 3 -5 6 6 6 11 1 17 -2 13 -5z m-137 -44 c10 -6 -44
-9 -160 -9 -103 1 -165 4 -150 9 36 12 292 12 310 0z m269 -26 c2 -2 -18 -4
-45 -5 -27 0 -44 -3 -37 -5 7 -3 9 -12 6 -20 -6 -15 -39 -19 -47 -5 -3 4 -19
11 -36 14 -38 8 -39 24 -2 30 28 5 154 -3 161 -9z m-399 -599 l-23 -25 24 -9
c19 -8 10 -10 -41 -9 -39 1 -50 3 -27 5 42 5 44 8 20 37 -16 19 -16 19 -1 7
14 -11 21 -10 40 3 32 23 35 20 8 -9z m-38 -64 c-22 -13 -11 -56 16 -59 27 -4
40 23 23 49 -6 11 -7 19 -1 19 13 0 31 -36 25 -52 -3 -7 -14 -19 -25 -26 -23
-14 -54 -3 -64 23 -7 20 10 55 27 55 8 0 8 -3 -1 -9z m41 -98 c-13 -2 -33 -2
-45 0 -13 2 -3 4 22 4 25 0 35 -2 23 -4z m5 -50 c-7 -9 -7 -13 0 -13 17 0 24
-37 12 -60 -7 -12 -14 -19 -17 -17 -2 3 0 14 5 24 10 19 6 43 -8 43 -4 0 -13
-13 -19 -30 -11 -32 -35 -40 -45 -15 -3 8 -3 22 0 30 4 8 1 22 -5 29 -14 17
-5 21 48 21 30 0 37 -3 29 -12z m0 -109 c19 -13 22 -22 16 -46 -5 -26 -4 -30
10 -25 8 3 18 2 21 -3 4 -6 -17 -10 -50 -10 -50 0 -56 2 -65 26 -13 34 5 68
40 73 3 1 16 -6 28 -15z m12 -104 c0 -5 -18 -10 -40 -10 -22 0 -40 5 -40 10 0
6 18 10 40 10 22 0 40 -4 40 -10z m8 -55 c-1 -40 -7 -42 -73 -34 l-50 6 52 1
c49 2 52 4 58 32 9 40 15 38 13 -5z m32 -129 c8 -22 -4 -56 -20 -56 -6 0 -5 8
1 19 13 20 6 51 -11 51 -6 0 -8 -10 -4 -24 4 -18 0 -28 -17 -40 -13 -9 -29
-16 -36 -16 -19 0 -43 43 -37 67 7 25 22 30 77 24 28 -2 41 -9 47 -25z m-70
-85 c-26 -4 -36 -12 -38 -28 -3 -20 1 -23 32 -23 20 0 36 -4 36 -10 0 -5 -17
-10 -39 -10 -31 0 -40 4 -44 22 -10 37 9 58 51 57 l37 -2 -35 -6z m13 -98
c-13 -2 -33 -2 -45 0 -13 2 -3 4 22 4 25 0 35 -2 23 -4z m-23 -48 c26 -27 41
-25 33 5 -3 12 0 20 7 20 10 0 11 -10 0 -77 0 -2 -19 -2 -42 -2 l-43 2 39 6
40 6 -37 25 c-20 14 -37 28 -37 33 0 14 17 7 40 -18z m10 -105 c41 0 35 -9 -9
-14 -23 -2 -34 2 -41 15 -14 26 -12 37 4 17 8 -11 27 -18 46 -18z m33 -52 c10
-37 -9 -58 -51 -57 l-37 2 35 6 c26 4 36 12 38 28 3 17 -3 24 -25 29 -48 10
-49 12 -7 13 35 1 43 -3 47 -21z m-3 -82 c-18 -17 -88 -28 -95 -15 -7 10 4 12
53 9 17 -1 32 3 32 9 0 6 5 11 12 11 8 0 8 -4 -2 -14z m-68 -66 c-2 -16 -1
-30 2 -30 4 0 12 14 17 30 12 33 30 38 50 14 10 -12 10 -20 1 -34 -6 -11 -9
-25 -7 -32 4 -10 -5 -12 -37 -9 -37 5 -39 6 -13 9 34 3 58 32 49 57 -9 23 -21
18 -33 -15 -17 -49 -58 -32 -44 19 8 32 20 25 15 -9z m58 -90 c11 -11 20 -24
20 -30 0 -15 -38 -50 -54 -50 -14 0 -46 36 -46 52 0 11 38 48 50 48 6 0 19 -9
30 -20z m-17 -97 c-41 -5 -42 -17 -3 -33 38 -16 38 -23 -2 -43 l-33 -16 33 0
c56 -1 35 -21 -23 -21 -30 0 -55 4 -55 9 0 5 20 17 45 28 25 10 45 21 45 25 0
3 -20 14 -45 24 -25 9 -45 21 -45 25 0 5 26 8 58 7 35 -1 44 -3 25 -5z m-199
-188 c-6 -16 -24 -21 -24 -7 0 11 11 22 21 22 5 0 6 -7 3 -15z m232 -65 c86 0
104 -3 104 -15 0 -13 -26 -15 -170 -15 -153 0 -170 2 -179 18 -9 16 -5 18 55
14 62 -4 66 -3 72 19 l7 24 3 -22 c3 -22 7 -23 108 -23z m104 -115 c0 -13 -26
-15 -175 -15 -149 0 -175 2 -175 15 0 13 26 15 175 15 149 0 175 -2 175 -15z
m-120 -124 c0 -86 5 -101 38 -101 60 0 91 72 55 127 -17 25 -17 27 -1 21 9 -4
18 -2 20 4 2 6 5 -19 6 -56 3 -73 -11 -105 -54 -124 -31 -15 -48 -15 -96 -1
-83 22 -93 157 -14 189 43 17 46 13 46 -59z m-638 -408 c-4 -115 -7 -123 -43
-123 l-30 0 7 93 c3 50 8 95 11 100 2 4 16 7 31 7 l27 0 -3 -77z m1216 2 c3
-71 -18 -134 -45 -133 -10 1 -30 -2 -46 -5 -23 -6 -29 -4 -37 18 -11 30 -14
168 -3 179 4 4 34 6 68 4 l60 -3 3 -60z m-1208 -185 c0 -5 -6 -10 -14 -10 -8
0 -18 5 -21 10 -3 6 3 10 14 10 12 0 21 -4 21 -10z m1095 0 c3 -5 -1 -10 -9
-10 -8 0 -18 5 -21 10 -3 6 1 10 9 10 8 0 18 -4 21 -10z"/>
<path d="M2942 2703 c0 -10 -1 -23 -3 -29 -10 -28 14 -16 26 14 13 30 13 32
-5 32 -11 0 -18 -7 -18 -17z"/>
<path d="M2940 2580 c0 -25 4 -30 25 -30 29 0 50 31 33 48 -7 7 -22 12 -35 12
-19 0 -23 -5 -23 -30z"/>
<path d="M2942 2323 c-14 -27 -3 -43 28 -43 16 0 30 6 33 13 7 20 -12 47 -33
47 -11 0 -23 -8 -28 -17z"/>
<path d="M2947 1694 c-4 -4 -7 -18 -7 -31 0 -19 5 -23 31 -23 27 0 30 3 27 28
-3 26 -34 43 -51 26z"/>
<path d="M2926 1125 c-36 -36 -13 -105 35 -105 l30 0 -3 58 c-3 49 -6 57 -24
60 -12 2 -29 -4 -38 -13z"/>
<path d="M3291 6784 c0 -11 3 -14 6 -6 3 7 2 16 -1 19 -3 4 -6 -2 -5 -13z"/>
<path d="M3331 6354 c0 -11 3 -14 6 -6 3 7 2 16 -1 19 -3 4 -6 -2 -5 -13z"/>
<path d="M3343 6220 c0 -25 2 -35 4 -22 2 12 2 32 0 45 -2 12 -4 2 -4 -23z"/>
<path d="M3342 6110 c0 -19 2 -27 5 -17 2 9 2 25 0 35 -3 9 -5 1 -5 -18z"/>
<path d="M3353 6010 c0 -25 2 -35 4 -22 2 12 2 32 0 45 -2 12 -4 2 -4 -23z"/>
<path d="M3353 5910 c0 -30 2 -43 4 -27 2 15 2 39 0 55 -2 15 -4 2 -4 -28z"/>
<path d="M3354 5742 c1 -84 -1 -102 -13 -102 -11 0 -10 -4 5 -15 19 -14 19
-14 -1 -15 -17 0 -17 -2 -5 -10 8 -5 18 -10 23 -10 10 0 8 222 -2 239 -6 10
-9 -23 -7 -87z"/>
<path d="M4358 2819 c-194 -7 -443 -33 -469 -50 -12 -7 -14 -196 -17 -1168
l-2 -1160 42 -6 c24 -3 363 -5 753 -3 l710 3 -4 1145 c-2 629 -7 1155 -10
1169 -9 32 -27 36 -215 55 -185 19 -525 25 -788 15z m385 -36 c-46 -2 -120 -2
-165 0 -46 1 -9 3 82 3 91 0 128 -2 83 -3z"/>
<path d="M3023 543 c9 -2 25 -2 35 0 9 3 1 5 -18 5 -19 0 -27 -2 -17 -5z"/>
</g>
</svg>
